<svg xmlns="http://www.w3.org/2000/svg" xmlns:xlink="http://www.w3.org/1999/xlink" xmlns:s="https://github.com/nturley/netlistsvg" width="766" height="801.5">
   <rect width="100%" height="100%" fill="#f0f0f0"/>
  <style>svg {
    stroke:#000;
    fill:none;
  }
  text {
    fill:#000;
    stroke:none;
    font-size:10px;
    font-weight: bold;
    font-family: "Courier New", monospace;
  }
  .nodelabel {
    text-anchor: middle;
  }
  .inputPortLabel {
    text-anchor: end;
  }
  .splitjoinBody {
    fill:#000;
  }</style>
  <g s:type="generic" transform="translate(510.3333333333333,64)" s:width="30" s:height="40" id="cell__13_">
    <text x="15" y="-4" class="nodelabel cell__13_" s:attribute="ref">sg13g2_nand2b_1</text>
    <rect width="30" height="40" s:generic="body" class="cell__13_"/>
    <g transform="translate(0,10)" s:x="0" s:y="10" s:pid="in0" id="port__13_~A_N">
      <text x="-3" y="-4" class="inputPortLabel cell__13_">A_N</text>
    </g>
    <g transform="translate(0,30)" s:x="0" s:y="10" s:pid="in0" id="port__13_~B">
      <text x="-3" y="-4" class="inputPortLabel cell__13_">B</text>
    </g>
    <g transform="translate(30,10)" s:x="30" s:y="10" s:pid="out0" id="port__13_~Y">
      <text x="5" y="-4" style="fill:#000; stroke:none" class="cell__13_">Y</text>
    </g>
  </g>
  <g s:type="generic" transform="translate(510.3333333333333,171.5)" s:width="30" s:height="40" id="cell__14_">
    <text x="15" y="-4" class="nodelabel cell__14_" s:attribute="ref">sg13g2_nor2b_1</text>
    <rect width="30" height="40" s:generic="body" class="cell__14_"/>
    <g transform="translate(0,10)" s:x="0" s:y="10" s:pid="in0" id="port__14_~A">
      <text x="-3" y="-4" class="inputPortLabel cell__14_">A</text>
    </g>
    <g transform="translate(0,30)" s:x="0" s:y="10" s:pid="in0" id="port__14_~B_N">
      <text x="-3" y="-4" class="inputPortLabel cell__14_">B_N</text>
    </g>
    <g transform="translate(30,10)" s:x="30" s:y="10" s:pid="out0" id="port__14_~Y">
      <text x="5" y="-4" style="fill:#000; stroke:none" class="cell__14_">Y</text>
    </g>
  </g>
  <g s:type="generic" transform="translate(614.3333333333334,302)" s:width="30" s:height="40" id="cell__15_">
    <text x="15" y="-4" class="nodelabel cell__15_" s:attribute="ref">sg13g2_xnor2_1</text>
    <rect width="30" height="40" s:generic="body" class="cell__15_"/>
    <g transform="translate(0,10)" s:x="0" s:y="10" s:pid="in0" id="port__15_~A">
      <text x="-3" y="-4" class="inputPortLabel cell__15_">A</text>
    </g>
    <g transform="translate(0,30)" s:x="0" s:y="10" s:pid="in0" id="port__15_~B">
      <text x="-3" y="-4" class="inputPortLabel cell__15_">B</text>
    </g>
    <g transform="translate(30,10)" s:x="30" s:y="10" s:pid="out0" id="port__15_~Y">
      <text x="5" y="-4" style="fill:#000; stroke:none" class="cell__15_">Y</text>
    </g>
  </g>
  <g s:type="generic" transform="translate(696,282)" s:width="30" s:height="40" id="cell__16_">
    <text x="15" y="-4" class="nodelabel cell__16_" s:attribute="ref">sg13g2_xnor2_1</text>
    <rect width="30" height="40" s:generic="body" class="cell__16_"/>
    <g transform="translate(0,10)" s:x="0" s:y="10" s:pid="in0" id="port__16_~A">
      <text x="-3" y="-4" class="inputPortLabel cell__16_">A</text>
    </g>
    <g transform="translate(0,30)" s:x="0" s:y="10" s:pid="in0" id="port__16_~B">
      <text x="-3" y="-4" class="inputPortLabel cell__16_">B</text>
    </g>
    <g transform="translate(30,10)" s:x="30" s:y="10" s:pid="out0" id="port__16_~Y">
      <text x="5" y="-4" style="fill:#000; stroke:none" class="cell__16_">Y</text>
    </g>
  </g>
  <g s:type="generic" transform="translate(616,44)" s:width="30" s:height="40" id="cell__17_">
    <text x="15" y="-4" class="nodelabel cell__17_" s:attribute="ref">sg13g2_a21oi_1</text>
    <rect width="30" height="60" s:generic="body" class="cell__17_"/>
    <g transform="translate(0,10)" s:x="0" s:y="10" s:pid="in0" id="port__17_~A1">
      <text x="-3" y="-4" class="inputPortLabel cell__17_">A1</text>
    </g>
    <g transform="translate(0,30)" s:x="0" s:y="10" s:pid="in0" id="port__17_~A2">
      <text x="-3" y="-4" class="inputPortLabel cell__17_">A2</text>
    </g>
    <g transform="translate(0,50)" s:x="0" s:y="10" s:pid="in0" id="port__17_~B1">
      <text x="-3" y="-4" class="inputPortLabel cell__17_">B1</text>
    </g>
    <g transform="translate(30,10)" s:x="30" s:y="10" s:pid="out0" id="port__17_~Y">
      <text x="5" y="-4" style="fill:#000; stroke:none" class="cell__17_">Y</text>
    </g>
  </g>
  <g s:type="generic" transform="translate(614.3333333333334,214)" s:width="30" s:height="40" id="cell__18_">
    <text x="15" y="-4" class="nodelabel cell__18_" s:attribute="ref">sg13g2_xnor2_1</text>
    <rect width="30" height="40" s:generic="body" class="cell__18_"/>
    <g transform="translate(0,10)" s:x="0" s:y="10" s:pid="in0" id="port__18_~A">
      <text x="-3" y="-4" class="inputPortLabel cell__18_">A</text>
    </g>
    <g transform="translate(0,30)" s:x="0" s:y="10" s:pid="in0" id="port__18_~B">
      <text x="-3" y="-4" class="inputPortLabel cell__18_">B</text>
    </g>
    <g transform="translate(30,10)" s:x="30" s:y="10" s:pid="out0" id="port__18_~Y">
      <text x="5" y="-4" style="fill:#000; stroke:none" class="cell__18_">Y</text>
    </g>
  </g>
  <g s:type="generic" transform="translate(696,44)" s:width="30" s:height="40" id="cell__19_">
    <text x="15" y="-4" class="nodelabel cell__19_" s:attribute="ref">sg13g2_xnor2_1</text>
    <rect width="30" height="40" s:generic="body" class="cell__19_"/>
    <g transform="translate(0,10)" s:x="0" s:y="10" s:pid="in0" id="port__19_~A">
      <text x="-3" y="-4" class="inputPortLabel cell__19_">A</text>
    </g>
    <g transform="translate(0,30)" s:x="0" s:y="10" s:pid="in0" id="port__19_~B">
      <text x="-3" y="-4" class="inputPortLabel cell__19_">B</text>
    </g>
    <g transform="translate(30,10)" s:x="30" s:y="10" s:pid="out0" id="port__19_~Y">
      <text x="5" y="-4" style="fill:#000; stroke:none" class="cell__19_">Y</text>
    </g>
  </g>
  <g s:type="generic" transform="translate(242,442.5)" s:width="30" s:height="40" id="cell__20_">
    <text x="15" y="-4" class="nodelabel cell__20_" s:attribute="ref">sg13g2_and4_1</text>
    <rect width="30" height="80" s:generic="body" class="cell__20_"/>
    <g transform="translate(0,10)" s:x="0" s:y="10" s:pid="in0" id="port__20_~A">
      <text x="-3" y="-4" class="inputPortLabel cell__20_">A</text>
    </g>
    <g transform="translate(0,30)" s:x="0" s:y="10" s:pid="in0" id="port__20_~B">
      <text x="-3" y="-4" class="inputPortLabel cell__20_">B</text>
    </g>
    <g transform="translate(0,50)" s:x="0" s:y="10" s:pid="in0" id="port__20_~C">
      <text x="-3" y="-4" class="inputPortLabel cell__20_">C</text>
    </g>
    <g transform="translate(0,70)" s:x="0" s:y="10" s:pid="in0" id="port__20_~D">
      <text x="-3" y="-4" class="inputPortLabel cell__20_">D</text>
    </g>
    <g transform="translate(30,10)" s:x="30" s:y="10" s:pid="out0" id="port__20_~X">
      <text x="5" y="-4" style="fill:#000; stroke:none" class="cell__20_">X</text>
    </g>
  </g>
  <g s:type="generic" transform="translate(242,570.5)" s:width="30" s:height="40" id="cell__21_">
    <text x="15" y="-4" class="nodelabel cell__21_" s:attribute="ref">sg13g2_nor4_1</text>
    <rect width="30" height="80" s:generic="body" class="cell__21_"/>
    <g transform="translate(0,10)" s:x="0" s:y="10" s:pid="in0" id="port__21_~A">
      <text x="-3" y="-4" class="inputPortLabel cell__21_">A</text>
    </g>
    <g transform="translate(0,30)" s:x="0" s:y="10" s:pid="in0" id="port__21_~B">
      <text x="-3" y="-4" class="inputPortLabel cell__21_">B</text>
    </g>
    <g transform="translate(0,50)" s:x="0" s:y="10" s:pid="in0" id="port__21_~C">
      <text x="-3" y="-4" class="inputPortLabel cell__21_">C</text>
    </g>
    <g transform="translate(0,70)" s:x="0" s:y="10" s:pid="in0" id="port__21_~D">
      <text x="-3" y="-4" class="inputPortLabel cell__21_">D</text>
    </g>
    <g transform="translate(30,10)" s:x="30" s:y="10" s:pid="out0" id="port__21_~Y">
      <text x="5" y="-4" style="fill:#000; stroke:none" class="cell__21_">Y</text>
    </g>
  </g>
  <g s:type="generic" transform="translate(322,442.5)" s:width="30" s:height="40" id="cell__22_">
    <text x="15" y="-4" class="nodelabel cell__22_" s:attribute="ref">sg13g2_nor2_1</text>
    <rect width="30" height="40" s:generic="body" class="cell__22_"/>
    <g transform="translate(0,10)" s:x="0" s:y="10" s:pid="in0" id="port__22_~A">
      <text x="-3" y="-4" class="inputPortLabel cell__22_">A</text>
    </g>
    <g transform="translate(0,30)" s:x="0" s:y="10" s:pid="in0" id="port__22_~B">
      <text x="-3" y="-4" class="inputPortLabel cell__22_">B</text>
    </g>
    <g transform="translate(30,10)" s:x="30" s:y="10" s:pid="out0" id="port__22_~Y">
      <text x="5" y="-4" style="fill:#000; stroke:none" class="cell__22_">Y</text>
    </g>
  </g>
  <g s:type="generic" transform="translate(402,684.5)" s:width="30" s:height="40" id="cell__23_">
    <text x="15" y="-4" class="nodelabel cell__23_" s:attribute="ref">sg13g2_xnor2_1</text>
    <rect width="30" height="40" s:generic="body" class="cell__23_"/>
    <g transform="translate(0,10)" s:x="0" s:y="10" s:pid="in0" id="port__23_~A">
      <text x="-3" y="-4" class="inputPortLabel cell__23_">A</text>
    </g>
    <g transform="translate(0,30)" s:x="0" s:y="10" s:pid="in0" id="port__23_~B">
      <text x="-3" y="-4" class="inputPortLabel cell__23_">B</text>
    </g>
    <g transform="translate(30,10)" s:x="30" s:y="10" s:pid="out0" id="port__23_~Y">
      <text x="5" y="-4" style="fill:#000; stroke:none" class="cell__23_">Y</text>
    </g>
  </g>
  <g s:type="generic" transform="translate(135,684.5)" s:width="30" s:height="40" id="cell__24_">
    <text x="15" y="-4" class="nodelabel cell__24_" s:attribute="ref">sg13g2_dfrbp_1</text>
    <rect width="30" height="60" s:generic="body" class="cell__24_"/>
    <g transform="translate(0,10)" s:x="0" s:y="10" s:pid="in0" id="port__24_~CLK">
      <text x="-3" y="-4" class="inputPortLabel cell__24_">CLK</text>
    </g>
    <g transform="translate(0,30)" s:x="0" s:y="10" s:pid="in0" id="port__24_~D">
      <text x="-3" y="-4" class="inputPortLabel cell__24_">D</text>
    </g>
    <g transform="translate(0,50)" s:x="0" s:y="10" s:pid="in0" id="port__24_~RESET_B">
      <text x="-3" y="-4" class="inputPortLabel cell__24_">RESET_B</text>
    </g>
    <g transform="translate(30,10)" s:x="30" s:y="10" s:pid="out0" id="port__24_~Q">
      <text x="5" y="-4" style="fill:#000; stroke:none" class="cell__24_">Q</text>
    </g>
    <g transform="translate(30,30)" s:x="30" s:y="10" s:pid="out0" id="port__24_~Q_N">
      <text x="5" y="-4" style="fill:#000; stroke:none" class="cell__24_">Q_N</text>
    </g>
  </g>
  <g s:type="generic" transform="translate(135,64)" s:width="30" s:height="40" id="cell__25_">
    <text x="15" y="-4" class="nodelabel cell__25_" s:attribute="ref">sg13g2_dfrbp_1</text>
    <rect width="30" height="60" s:generic="body" class="cell__25_"/>
    <g transform="translate(0,10)" s:x="0" s:y="10" s:pid="in0" id="port__25_~CLK">
      <text x="-3" y="-4" class="inputPortLabel cell__25_">CLK</text>
    </g>
    <g transform="translate(0,30)" s:x="0" s:y="10" s:pid="in0" id="port__25_~D">
      <text x="-3" y="-4" class="inputPortLabel cell__25_">D</text>
    </g>
    <g transform="translate(0,50)" s:x="0" s:y="10" s:pid="in0" id="port__25_~RESET_B">
      <text x="-3" y="-4" class="inputPortLabel cell__25_">RESET_B</text>
    </g>
    <g transform="translate(30,10)" s:x="30" s:y="10" s:pid="out0" id="port__25_~Q">
      <text x="5" y="-4" style="fill:#000; stroke:none" class="cell__25_">Q</text>
    </g>
    <g transform="translate(30,30)" s:x="30" s:y="10" s:pid="out0" id="port__25_~Q_N">
      <text x="5" y="-4" style="fill:#000; stroke:none" class="cell__25_">Q_N</text>
    </g>
  </g>
  <g s:type="generic" transform="translate(135,237)" s:width="30" s:height="40" id="cell__26_">
    <text x="15" y="-4" class="nodelabel cell__26_" s:attribute="ref">sg13g2_dfrbp_1</text>
    <rect width="30" height="60" s:generic="body" class="cell__26_"/>
    <g transform="translate(0,10)" s:x="0" s:y="10" s:pid="in0" id="port__26_~CLK">
      <text x="-3" y="-4" class="inputPortLabel cell__26_">CLK</text>
    </g>
    <g transform="translate(0,30)" s:x="0" s:y="10" s:pid="in0" id="port__26_~D">
      <text x="-3" y="-4" class="inputPortLabel cell__26_">D</text>
    </g>
    <g transform="translate(0,50)" s:x="0" s:y="10" s:pid="in0" id="port__26_~RESET_B">
      <text x="-3" y="-4" class="inputPortLabel cell__26_">RESET_B</text>
    </g>
    <g transform="translate(30,10)" s:x="30" s:y="10" s:pid="out0" id="port__26_~Q">
      <text x="5" y="-4" style="fill:#000; stroke:none" class="cell__26_">Q</text>
    </g>
    <g transform="translate(30,30)" s:x="30" s:y="10" s:pid="out0" id="port__26_~Q_N">
      <text x="5" y="-4" style="fill:#000; stroke:none" class="cell__26_">Q_N</text>
    </g>
  </g>
  <g s:type="generic" transform="translate(518,664.5)" s:width="30" s:height="40" id="cell__27_">
    <text x="15" y="-4" class="nodelabel cell__27_" s:attribute="ref">sg13g2_dfrbp_1</text>
    <rect width="30" height="60" s:generic="body" class="cell__27_"/>
    <g transform="translate(0,10)" s:x="0" s:y="10" s:pid="in0" id="port__27_~CLK">
      <text x="-3" y="-4" class="inputPortLabel cell__27_">CLK</text>
    </g>
    <g transform="translate(0,30)" s:x="0" s:y="10" s:pid="in0" id="port__27_~D">
      <text x="-3" y="-4" class="inputPortLabel cell__27_">D</text>
    </g>
    <g transform="translate(0,50)" s:x="0" s:y="10" s:pid="in0" id="port__27_~RESET_B">
      <text x="-3" y="-4" class="inputPortLabel cell__27_">RESET_B</text>
    </g>
    <g transform="translate(30,10)" s:x="30" s:y="10" s:pid="out0" id="port__27_~Q">
      <text x="5" y="-4" style="fill:#000; stroke:none" class="cell__27_">Q</text>
    </g>
    <g transform="translate(30,30)" s:x="30" s:y="10" s:pid="out0" id="port__27_~Q_N">
      <text x="5" y="-4" style="fill:#000; stroke:none" class="cell__27_">Q_N</text>
    </g>
  </g>
  <g s:type="inputExt" transform="translate(12,64.5)" s:width="30" s:height="20" id="cell_clk">
    <text x="15" y="-4" class="nodelabel cell_clk" s:attribute="ref">clk</text>
    <s:alias val="$_inputExt_"/>
    <path d="M0,0 L0,20 L15,20 L30,10 L15,0 Z" class="cell_clk"/>
    <g s:x="28" s:y="10" s:pid="Y"/>
  </g>
  <g s:type="inputExt" transform="translate(12,277.5)" s:width="30" s:height="20" id="cell_rst_n">
    <text x="15" y="-4" class="nodelabel cell_rst_n" s:attribute="ref">rst_n</text>
    <s:alias val="$_inputExt_"/>
    <path d="M0,0 L0,20 L15,20 L30,10 L15,0 Z" class="cell_rst_n"/>
    <g s:x="28" s:y="10" s:pid="Y"/>
  </g>
  <g s:type="inputExt" transform="translate(135,172)" s:width="30" s:height="20" id="cell_up">
    <text x="15" y="-4" class="nodelabel cell_up" s:attribute="ref">up</text>
    <s:alias val="$_inputExt_"/>
    <path d="M0,0 L0,20 L15,20 L30,10 L15,0 Z" class="cell_up"/>
    <g s:x="28" s:y="10" s:pid="Y"/>
  </g>
  <g s:type="outputExt" transform="translate(696,390.5)" s:width="30" s:height="20" id="cell_count">
    <text x="15" y="-4" class="nodelabel cell_count" s:attribute="ref">count</text>
    <s:alias val="$_outputExt_"/>
    <path d="M30,0 L30,20 L15,20 L0,10 L15,0 Z" class="cell_count"/>
    <g s:x="0" s:y="10" s:pid="A"/>
  </g>
  <g s:type="join" transform="translate(621.25,380)" s:width="4" s:height="40" id="cell_$join$,5,6,7,8,">
    <rect width="5" height="80" class="splitjoinBody" s:generic="body"/>
    <s:alias val="$_join_"/>
    <g s:x="5" s:y="20" s:pid="out"/>
    <g transform="translate(0,10)" s:x="0" s:y="10" s:pid="in0">
      <text x="-3" y="-4" class="inputPortLabel">0</text>
    </g>
    <g transform="translate(0,30)" s:x="0" s:y="10" s:pid="in0">
      <text x="-3" y="-4" class="inputPortLabel">1</text>
    </g>
    <g transform="translate(0,50)" s:x="0" s:y="10" s:pid="in0">
      <text x="-3" y="-4" class="inputPortLabel">2</text>
    </g>
    <g transform="translate(0,70)" s:x="0" s:y="10" s:pid="in0">
      <text x="-3" y="-4" class="inputPortLabel">3</text>
    </g>
  </g>
  <line x1="166" x2="510.3333333333333" y1="74.5" y2="74.5" class="net_6"/>
  <line x1="166" x2="225" y1="74.5" y2="74.5" class="net_6"/>
  <line x1="225" x2="225" y1="74.5" y2="193" class="net_6"/>
  <line x1="225" x2="450" y1="193" y2="193" class="net_6"/>
  <line x1="450" x2="450" y1="193" y2="202" class="net_6"/>
  <circle cx="225" cy="74.5" r="2" style="fill:#000" class="net_6"/>
  <circle cx="225" cy="193" r="2" style="fill:#000" class="net_6"/>
  <line x1="450" x2="510.3333333333333" y1="202" y2="202" class="net_6"/>
  <line x1="166" x2="225" y1="74.5" y2="74.5" class="net_6"/>
  <line x1="225" x2="225" y1="74.5" y2="312.5" class="net_6"/>
  <circle cx="225" cy="312.5" r="2" style="fill:#000" class="net_6"/>
  <line x1="225" x2="614.3333333333334" y1="312.5" y2="312.5" class="net_6"/>
  <line x1="166" x2="225" y1="74.5" y2="74.5" class="net_6"/>
  <line x1="225" x2="225" y1="74.5" y2="453" class="net_6"/>
  <circle cx="225" cy="453" r="2" style="fill:#000" class="net_6"/>
  <line x1="225" x2="242" y1="453" y2="453" class="net_6"/>
  <line x1="166" x2="225" y1="74.5" y2="74.5" class="net_6"/>
  <line x1="225" x2="225" y1="74.5" y2="581" class="net_6"/>
  <line x1="225" x2="242" y1="581" y2="581" class="net_6"/>
  <line x1="166" x2="225" y1="74.5" y2="74.5" class="net_6"/>
  <line x1="225" x2="225" y1="74.5" y2="410.5" class="net_6"/>
  <circle cx="225" cy="410.5" r="2" style="fill:#000" class="net_6"/>
  <line x1="225" x2="621.25" y1="410.5" y2="410.5" class="net_6"/>
  <line x1="163" x2="450" y1="182" y2="182" class="net_4"/>
  <line x1="450" x2="450" y1="182" y2="94.5" class="net_4"/>
  <circle cx="450" cy="182" r="2" style="fill:#000" class="net_4"/>
  <line x1="450" x2="510.3333333333333" y1="94.5" y2="94.5" class="net_4"/>
  <line x1="163" x2="510.3333333333333" y1="182" y2="182" class="net_4"/>
  <line x1="163" x2="215" y1="182" y2="182" class="net_4"/>
  <line x1="215" x2="215" y1="182" y2="323.5" class="net_4"/>
  <line x1="215" x2="578" y1="323.5" y2="323.5" class="net_4"/>
  <line x1="578" x2="578" y1="323.5" y2="332.5" class="net_4"/>
  <circle cx="215" cy="182" r="2" style="fill:#000" class="net_4"/>
  <circle cx="215" cy="323.5" r="2" style="fill:#000" class="net_4"/>
  <line x1="578" x2="614.3333333333334" y1="332.5" y2="332.5" class="net_4"/>
  <line x1="163" x2="215" y1="182" y2="182" class="net_4"/>
  <line x1="215" x2="215" y1="182" y2="224.5" class="net_4"/>
  <circle cx="215" cy="224.5" r="2" style="fill:#000" class="net_4"/>
  <line x1="215" x2="614.3333333333334" y1="224.5" y2="224.5" class="net_4"/>
  <line x1="163" x2="215" y1="182" y2="182" class="net_4"/>
  <line x1="215" x2="215" y1="182" y2="473" class="net_4"/>
  <circle cx="215" cy="473" r="2" style="fill:#000" class="net_4"/>
  <line x1="215" x2="242" y1="473" y2="473" class="net_4"/>
  <line x1="163" x2="215" y1="182" y2="182" class="net_4"/>
  <line x1="215" x2="215" y1="182" y2="601" class="net_4"/>
  <line x1="215" x2="242" y1="601" y2="601" class="net_4"/>
  <line x1="166" x2="195" y1="715" y2="715" class="net_12"/>
  <line x1="195" x2="195" y1="715" y2="788.5" class="net_12"/>
  <line x1="195" x2="664" y1="788.5" y2="788.5" class="net_12"/>
  <line x1="664" x2="664" y1="788.5" y2="292.5" class="net_12"/>
  <line x1="664" x2="696" y1="292.5" y2="292.5" class="net_12"/>
  <line x1="166" x2="195" y1="715" y2="715" class="net_12"/>
  <line x1="195" x2="195" y1="715" y2="757.5" class="net_12"/>
  <line x1="195" x2="82" y1="757.5" y2="757.5" class="net_12"/>
  <line x1="82" x2="82" y1="757.5" y2="715" class="net_12"/>
  <circle cx="195" cy="757.5" r="2" style="fill:#000" class="net_12"/>
  <line x1="82" x2="135" y1="715" y2="715" class="net_12"/>
  <line x1="645.3333333333334" x2="696" y1="312.5" y2="312.5" class="net_11"/>
  <line x1="166" x2="195" y1="695" y2="695" class="net_5"/>
  <line x1="195" x2="195" y1="695" y2="43" class="net_5"/>
  <line x1="195" x2="578" y1="43" y2="43" class="net_5"/>
  <line x1="578" x2="578" y1="43" y2="54.5" class="net_5"/>
  <line x1="578" x2="616" y1="54.5" y2="54.5" class="net_5"/>
  <line x1="166" x2="195" y1="695" y2="695" class="net_5"/>
  <line x1="195" x2="195" y1="695" y2="513" class="net_5"/>
  <circle cx="195" cy="513" r="2" style="fill:#000" class="net_5"/>
  <line x1="195" x2="242" y1="513" y2="513" class="net_5"/>
  <line x1="166" x2="195" y1="695" y2="695" class="net_5"/>
  <line x1="195" x2="195" y1="695" y2="641" class="net_5"/>
  <circle cx="195" cy="641" r="2" style="fill:#000" class="net_5"/>
  <line x1="195" x2="242" y1="641" y2="641" class="net_5"/>
  <line x1="166" x2="195" y1="695" y2="695" class="net_5"/>
  <line x1="195" x2="195" y1="695" y2="390.5" class="net_5"/>
  <circle cx="195" cy="390.5" r="2" style="fill:#000" class="net_5"/>
  <line x1="195" x2="621.25" y1="390.5" y2="390.5" class="net_5"/>
  <line x1="541.3333333333333" x2="616" y1="74.5" y2="74.5" class="net_9"/>
  <line x1="541.3333333333333" x2="578" y1="182" y2="182" class="net_10"/>
  <line x1="578" x2="578" y1="182" y2="94.5" class="net_10"/>
  <line x1="578" x2="616" y1="94.5" y2="94.5" class="net_10"/>
  <line x1="166" x2="578" y1="247.5" y2="247.5" class="net_7"/>
  <line x1="578" x2="578" y1="247.5" y2="244.5" class="net_7"/>
  <line x1="578" x2="614.3333333333334" y1="244.5" y2="244.5" class="net_7"/>
  <line x1="166" x2="205" y1="247.5" y2="247.5" class="net_7"/>
  <line x1="205" x2="205" y1="247.5" y2="493" class="net_7"/>
  <circle cx="205" cy="247.5" r="2" style="fill:#000" class="net_7"/>
  <circle cx="205" cy="493" r="2" style="fill:#000" class="net_7"/>
  <line x1="205" x2="242" y1="493" y2="493" class="net_7"/>
  <line x1="166" x2="205" y1="247.5" y2="247.5" class="net_7"/>
  <line x1="205" x2="205" y1="247.5" y2="621" class="net_7"/>
  <line x1="205" x2="242" y1="621" y2="621" class="net_7"/>
  <line x1="166" x2="205" y1="247.5" y2="247.5" class="net_7"/>
  <line x1="205" x2="205" y1="247.5" y2="421.5" class="net_7"/>
  <line x1="205" x2="578" y1="421.5" y2="421.5" class="net_7"/>
  <line x1="578" x2="578" y1="421.5" y2="430.5" class="net_7"/>
  <circle cx="205" cy="421.5" r="2" style="fill:#000" class="net_7"/>
  <line x1="578" x2="621.25" y1="430.5" y2="430.5" class="net_7"/>
  <line x1="647" x2="696" y1="54.5" y2="54.5" class="net_14"/>
  <line x1="645.3333333333334" x2="664" y1="224.5" y2="224.5" class="net_15"/>
  <line x1="664" x2="664" y1="224.5" y2="74.5" class="net_15"/>
  <line x1="664" x2="696" y1="74.5" y2="74.5" class="net_15"/>
  <line x1="273" x2="322" y1="453" y2="453" class="net_17"/>
  <line x1="273" x2="290" y1="581" y2="581" class="net_18"/>
  <line x1="290" x2="290" y1="581" y2="473" class="net_18"/>
  <line x1="290" x2="322" y1="473" y2="473" class="net_18"/>
  <line x1="549" x2="578" y1="675" y2="675" class="net_8"/>
  <line x1="578" x2="578" y1="675" y2="778.5" class="net_8"/>
  <line x1="578" x2="370" y1="778.5" y2="778.5" class="net_8"/>
  <line x1="370" x2="370" y1="778.5" y2="695" class="net_8"/>
  <circle cx="578" cy="675" r="2" style="fill:#000" class="net_8"/>
  <line x1="370" x2="402" y1="695" y2="695" class="net_8"/>
  <line x1="549" x2="621.75" y1="675" y2="675" class="net_8"/>
  <line x1="621.75" x2="621.75" y1="675" y2="451" class="net_8"/>
  <line x1="353" x2="380" y1="453" y2="453" class="net_19"/>
  <line x1="380" x2="380" y1="453" y2="715" class="net_19"/>
  <line x1="380" x2="402" y1="715" y2="715" class="net_19"/>
  <line x1="40" x2="72" y1="74.5" y2="74.5" class="net_2"/>
  <line x1="72" x2="72" y1="74.5" y2="695" class="net_2"/>
  <circle cx="72" cy="74.5" r="2" style="fill:#000" class="net_2"/>
  <line x1="72" x2="135" y1="695" y2="695" class="net_2"/>
  <line x1="40" x2="135" y1="74.5" y2="74.5" class="net_2"/>
  <line x1="40" x2="72" y1="74.5" y2="74.5" class="net_2"/>
  <line x1="72" x2="72" y1="74.5" y2="247.5" class="net_2"/>
  <circle cx="72" cy="247.5" r="2" style="fill:#000" class="net_2"/>
  <line x1="72" x2="135" y1="247.5" y2="247.5" class="net_2"/>
  <line x1="40" x2="72" y1="74.5" y2="74.5" class="net_2"/>
  <line x1="72" x2="72" y1="74.5" y2="663.5" class="net_2"/>
  <line x1="72" x2="450" y1="663.5" y2="663.5" class="net_2"/>
  <line x1="450" x2="450" y1="663.5" y2="675" class="net_2"/>
  <circle cx="72" cy="663.5" r="2" style="fill:#000" class="net_2"/>
  <line x1="450" x2="518" y1="675" y2="675" class="net_2"/>
  <line x1="40" x2="52" y1="287.5" y2="287.5" class="net_3"/>
  <line x1="52" x2="52" y1="287.5" y2="735" class="net_3"/>
  <circle cx="52" cy="287.5" r="2" style="fill:#000" class="net_3"/>
  <circle cx="52" cy="735" r="2" style="fill:#000" class="net_3"/>
  <line x1="52" x2="135" y1="735" y2="735" class="net_3"/>
  <line x1="40" x2="52" y1="287.5" y2="287.5" class="net_3"/>
  <line x1="52" x2="52" y1="287.5" y2="114.5" class="net_3"/>
  <line x1="52" x2="135" y1="114.5" y2="114.5" class="net_3"/>
  <line x1="40" x2="135" y1="287.5" y2="287.5" class="net_3"/>
  <line x1="40" x2="52" y1="287.5" y2="287.5" class="net_3"/>
  <line x1="52" x2="52" y1="287.5" y2="767.5" class="net_3"/>
  <line x1="52" x2="450" y1="767.5" y2="767.5" class="net_3"/>
  <line x1="450" x2="450" y1="767.5" y2="715" class="net_3"/>
  <line x1="450" x2="518" y1="715" y2="715" class="net_3"/>
  <line x1="727" x2="744" y1="292.5" y2="292.5" class="net_13"/>
  <line x1="744" x2="744" y1="292.5" y2="23" class="net_13"/>
  <line x1="744" x2="82" y1="23" y2="23" class="net_13"/>
  <line x1="82" x2="82" y1="23" y2="94.5" class="net_13"/>
  <line x1="82" x2="135" y1="94.5" y2="94.5" class="net_13"/>
  <line x1="727" x2="754" y1="54.5" y2="54.5" class="net_16"/>
  <line x1="754" x2="754" y1="54.5" y2="12" class="net_16"/>
  <line x1="754" x2="62" y1="12" y2="12" class="net_16"/>
  <line x1="62" x2="62" y1="12" y2="267.5" class="net_16"/>
  <line x1="62" x2="135" y1="267.5" y2="267.5" class="net_16"/>
  <line x1="433" x2="518" y1="695" y2="695" class="net_20"/>
  <line x1="627.25" x2="696" y1="400.5" y2="400.5" class="net_5,6,7,8"/>
</svg>
